<?xml version="1.0" standalone="no"?>
<!DOCTYPE svg PUBLIC "-//W3C//DTD SVG 20010904//EN"
 "http://www.w3.org/TR/2001/REC-SVG-20010904/DTD/svg10.dtd">
<svg version="1.0" xmlns="http://www.w3.org/2000/svg"
 width="943.000000pt" height="943.000000pt" viewBox="0 0 943.000000 943.000000"
 preserveAspectRatio="xMidYMid meet">
<metadata>
Created by potrace 1.11, written by Peter Selinger 2001-2013
</metadata>
<g transform="translate(0.000000,943.000000) scale(0.100000,-0.100000)"
fill="#000000" stroke="none">
<path d="M6197 6974 c-1 -1 -23 -4 -48 -7 -103 -12 -210 -55 -333 -135 -154
-98 -668 -497 -866 -672 -31 -27 -73 -63 -95 -80 -22 -17 -65 -55 -95 -83 -30
-29 -95 -89 -145 -132 -49 -44 -95 -84 -101 -90 -36 -32 -228 -209 -279 -256
-45 -42 -66 -56 -85 -54 -14 2 -88 6 -165 10 -197 9 -205 11 -205 46 0 20 -59
296 -85 399 -8 30 -16 69 -19 85 -3 17 -13 62 -21 100 -9 39 -18 84 -21 100
-3 17 -10 38 -15 47 -5 9 -9 25 -9 36 0 27 -31 50 -57 43 -32 -9 -80 -55 -102
-99 -40 -79 -49 -147 -55 -431 -3 -150 -8 -276 -10 -280 -3 -3 -19 -6 -38 -5
-63 3 -223 14 -283 19 -33 2 -94 7 -135 10 -41 3 -93 8 -115 10 -22 2 -80 7
-130 10 -49 4 -106 8 -125 10 -19 2 -69 7 -110 10 -41 4 -86 8 -100 10 -14 2
-63 7 -110 10 -47 4 -93 9 -103 11 -10 2 -59 6 -108 9 -49 3 -97 8 -107 9 -9
2 -55 7 -102 11 -47 4 -87 9 -90 10 -3 2 -37 6 -75 10 -95 8 -153 14 -195 20
-19 2 -60 7 -90 10 -89 10 -176 20 -260 31 -30 4 -68 9 -85 10 -76 8 -112 12
-140 18 -16 3 -59 8 -95 11 -35 3 -78 8 -95 10 -183 28 -410 45 -463 35 -61
-12 -66 -14 -83 -35 -61 -74 -30 -95 258 -176 82 -23 171 -48 198 -56 28 -8
58 -15 67 -17 10 -1 21 -5 24 -9 4 -4 17 -7 28 -7 12 0 57 -9 100 -20 44 -11
89 -22 100 -24 12 -3 49 -11 83 -19 35 -9 63 -13 63 -11 0 3 12 -2 27 -10 16
-7 48 -17 73 -21 25 -4 54 -9 65 -12 11 -2 27 -6 35 -7 9 -2 13 -11 11 -22
-13 -67 -12 -136 3 -158 48 -74 187 -52 310 49 l55 44 93 -19 c51 -11 103 -22
116 -25 l22 -5 -19 -28 c-11 -15 -22 -50 -24 -78 -5 -51 -5 -51 24 -51 25 0
37 11 75 64 25 35 50 63 57 63 17 0 215 -39 262 -51 22 -6 51 -13 65 -15 43
-7 185 -37 188 -40 2 -1 -6 -15 -17 -31 -12 -15 -23 -50 -26 -76 -3 -27 -7
-53 -11 -58 -3 -5 13 -9 34 -9 23 0 42 5 45 13 2 6 25 39 50 73 l45 61 153
-31 c152 -31 154 -32 149 -56 -2 -14 -4 -53 -4 -88 0 -67 20 -108 62 -127 39
-18 23 -26 -40 -20 -35 3 -97 7 -138 10 -140 10 -181 13 -218 19 -34 5 -122
14 -212 21 -60 4 -222 22 -280 30 -19 2 -57 7 -85 11 -27 3 -61 7 -75 9 -23 3
-128 14 -190 19 -14 1 -30 4 -35 7 -6 2 -21 4 -35 3 -14 -1 -39 -2 -56 -3 -26
-1 -33 -6 -38 -28 -9 -32 -2 -37 89 -63 39 -11 93 -27 120 -35 28 -8 61 -17
75 -19 14 -3 61 -14 105 -25 80 -20 148 -35 320 -73 50 -10 99 -21 110 -24 11
-2 34 -7 50 -10 17 -3 75 -16 130 -29 55 -12 120 -26 145 -31 55 -10 44 -7
110 -23 76 -18 251 -71 273 -83 17 -9 17 -11 3 -27 -20 -22 -46 -85 -46 -113
0 -34 40 -85 85 -108 54 -28 166 -56 240 -60 133 -8 405 0 460 14 70 18 113
28 135 32 39 8 233 66 253 76 22 11 187 13 422 4 351 -13 423 -16 540 -21 351
-14 428 -17 516 -17 94 0 185 8 201 18 15 10 -11 42 -44 53 -33 12 -137 34
-215 46 -48 8 -58 23 -38 62 8 15 15 36 15 46 0 11 10 27 22 37 17 14 24 32
28 76 l5 59 122 1 122 1 -2 -66 c-2 -81 15 -114 76 -142 74 -33 186 -20 292
33 56 29 168 108 202 143 18 19 30 22 90 19 37 -1 107 -3 156 -5 48 -1 87 -4
87 -6 0 -3 -11 -19 -24 -36 -17 -23 -25 -48 -28 -90 l-3 -58 30 4 c22 2 39 15
63 48 18 24 40 52 48 62 9 11 23 31 32 47 14 22 23 27 47 24 17 -2 113 -6 215
-9 169 -6 260 -11 268 -14 2 0 -6 -13 -17 -27 -15 -19 -21 -41 -21 -75 0 -47
1 -49 28 -49 22 1 35 13 70 63 24 34 47 68 51 75 7 11 32 13 117 8 60 -2 116
-5 124 -5 12 -1 14 -12 12 -51 -4 -52 3 -66 45 -88 61 -33 179 7 271 93 l34
32 116 -5 c178 -7 759 -7 827 0 70 7 109 15 148 30 24 9 27 15 22 37 -4 14
-11 32 -17 38 -20 24 -143 57 -313 83 -33 5 -70 12 -82 14 -12 3 -50 7 -85 11
-35 3 -70 8 -78 10 -14 3 -45 8 -157 20 -27 3 -61 8 -78 10 -16 2 -52 6 -80
10 -27 3 -63 8 -80 10 -47 6 -197 26 -225 30 -14 2 -52 6 -85 10 -33 3 -71 8
-85 10 -14 2 -52 6 -85 10 -32 4 -66 8 -75 10 -8 2 -44 6 -80 10 -36 4 -74 9
-85 11 -20 4 -133 18 -230 29 -27 3 -61 8 -75 10 -22 4 -201 28 -300 41 -19 2
-64 9 -100 14 -36 5 -83 12 -104 15 -21 3 -48 7 -60 10 -12 2 -43 7 -71 10
-27 3 -81 10 -120 16 -38 5 -92 12 -120 15 -27 2 -57 7 -65 9 -8 2 -35 7 -60
10 -25 3 -56 8 -70 10 -14 2 -72 12 -130 21 -58 9 -114 18 -125 20 -11 2 -54
8 -95 15 -98 14 -109 21 -73 44 15 10 41 29 56 44 24 22 29 23 37 11 6 -8 8
-20 5 -27 -4 -13 20 -43 35 -43 10 0 40 28 41 38 3 30 10 45 29 60 13 11 23
33 27 59 5 39 15 50 147 165 137 119 361 337 421 408 163 194 281 393 311 525
52 228 30 365 -69 439 -25 19 -43 21 -160 22 -104 1 -149 6 -212 24 -124 35
-145 39 -223 43 -40 2 -74 2 -75 1z m-2823 -2151 c-1 -16 -2 -40 -3 -55 l-1
-27 -82 4 c-46 2 -101 4 -123 5 -37 1 -35 2 30 20 39 10 95 33 125 49 30 17
55 31 56 31 0 0 0 -12 -2 -27z m-327 -59 c-3 -3 -12 -4 -19 -1 -8 3 -5 6 6 6
11 1 17 -2 13 -5z m2337 -145 c35 5 34 -9 -3 -50 -24 -26 -29 -39 -28 -80 1
-27 -2 -49 -7 -49 -5 0 -2 -8 7 -18 33 -37 29 -37 -173 -8 -58 8 -127 18 -155
21 -27 3 -59 8 -71 10 -23 5 -89 17 -114 20 -8 1 -32 5 -52 10 l-38 7 68 35
c37 19 92 51 123 70 60 36 77 40 123 28 17 -5 27 -4 23 1 -3 5 53 9 129 8 74
0 138 4 141 9 3 5 9 4 13 -3 4 -6 10 -11 14 -11z m216 -4 c0 -8 -7 -15 -15
-15 -8 0 -15 7 -15 15 0 8 7 15 15 15 8 0 15 -7 15 -15z m-46 -189 c5 -25 17
-41 32 -48 28 -13 32 -28 7 -23 -10 2 -43 7 -73 11 -30 4 -58 9 -62 10 -5 1
-17 2 -29 3 -19 1 -19 2 -5 23 9 12 16 30 16 40 0 22 33 24 50 3 14 -17 30
-20 30 -4 0 5 -4 7 -10 4 -5 -3 -7 0 -4 8 10 28 38 11 48 -27z"/>
<path d="M907 3956 c-184 -62 -382 -254 -551 -534 -33 -54 -107 -196 -111
-212 -1 -3 -9 -23 -19 -45 -21 -49 -57 -152 -62 -182 -2 -12 -8 -33 -13 -46
-24 -61 -32 -212 -16 -282 22 -95 57 -139 138 -175 52 -23 157 -31 237 -18 64
11 213 87 305 156 75 56 224 201 326 317 24 28 47 52 50 55 23 20 12 60 -17
60 -6 0 -36 -26 -65 -57 -271 -286 -411 -392 -576 -438 -122 -34 -246 -6 -288
66 -32 55 -28 214 9 344 75 263 246 555 433 742 126 127 250 191 355 184 29
-2 75 -49 82 -84 13 -72 -47 -191 -119 -235 -56 -34 -72 -63 -57 -97 13 -28
47 -33 85 -14 85 44 185 238 172 335 -18 143 -146 211 -298 160z"/>
<path d="M4850 3969 c-207 -38 -488 -326 -664 -682 -67 -136 -129 -308 -141
-387 -3 -25 -9 -54 -12 -65 -3 -11 -5 -54 -5 -96 3 -185 94 -279 272 -282 112
-2 155 8 265 65 78 40 134 79 220 152 137 117 330 328 321 351 -15 41 -38 26
-199 -137 -188 -189 -289 -266 -417 -316 -84 -33 -224 -37 -281 -9 -54 27 -81
82 -84 175 -12 370 384 1015 696 1133 121 46 209 7 209 -93 0 -49 -51 -149
-94 -183 -70 -56 -95 -82 -92 -96 8 -39 19 -49 53 -49 48 0 119 73 168 174 46
93 55 158 31 220 -38 100 -129 146 -246 125z"/>
<path d="M1267 3442 c-2 -4 -3 -178 -3 -387 l1 -380 55 0 55 0 0 385 0 384
-52 3 c-29 2 -54 -1 -56 -5z"/>
<path d="M2151 3059 l0 -389 47 2 c41 3 47 6 48 26 1 12 2 26 3 31 0 5 14 -3
29 -19 74 -74 220 -64 302 22 99 102 103 305 8 413 -80 91 -229 97 -308 13
l-20 -22 0 157 0 157 -54 -1 -54 -2 -1 -388z m328 43 c44 -32 66 -89 66 -167
-1 -82 -21 -126 -75 -162 -65 -45 -155 -18 -192 57 -25 50 -24 161 2 215 37
76 136 105 199 57z"/>
<path d="M3398 3433 c-2 -10 -4 -184 -3 -388 l0 -370 53 -2 c50 -3 52 -2 53
25 1 33 1 698 0 730 -1 20 -6 22 -50 22 -38 0 -50 -4 -53 -17z"/>
<path d="M5709 3436 c0 -14 0 -690 0 -733 l1 -33 53 3 52 3 0 384 0 385 -53 1
c-31 1 -52 -3 -53 -10z"/>
<path d="M8122 3062 l3 -387 53 -2 52 -2 0 388 0 388 -55 2 -55 1 2 -388z"/>
<path d="M5217 3414 c-8 -9 14 -77 31 -98 39 -43 94 -55 162 -36 39 11 76 57
86 106 5 28 4 30 -31 32 -32 2 -37 -1 -46 -27 -15 -42 -64 -59 -99 -33 -14 11
-26 28 -28 39 -2 15 -11 20 -36 21 -18 1 -36 -1 -39 -4z"/>
<path d="M6030 3395 c0 -89 104 -150 196 -115 47 18 84 76 84 131 0 13 -75 6
-75 -6 -1 -24 -27 -53 -51 -59 -33 -9 -71 15 -80 49 -5 21 -12 25 -40 25 -30
0 -34 -3 -34 -25z"/>
<path d="M7860 3392 c-44 -36 -17 -112 40 -112 36 0 59 19 66 55 11 60 -57 96
-106 57z"/>
<path d="M6588 3343 l-48 -14 0 -63 0 -63 -40 2 -40 2 0 -44 c0 -45 3 -48 58
-43 l22 1 0 -165 c0 -91 0 -168 0 -171 -1 -18 33 -80 52 -95 29 -24 84 -33
141 -25 42 7 45 9 42 34 -1 14 -3 34 -4 43 -1 14 -9 17 -42 13 -45 -4 -79 19
-80 55 0 11 0 76 0 145 0 69 0 133 0 144 1 16 9 19 60 19 72 0 78 3 75 41 -3
45 -8 48 -74 46 -67 -2 -63 -7 -61 79 1 70 -5 75 -61 59z"/>
<path d="M5260 3205 c-84 -25 -90 -27 -90 -46 0 -10 4 -29 10 -43 l9 -25 47
21 c59 25 145 22 174 -8 19 -20 37 -83 23 -85 -4 0 -30 -3 -58 -5 -111 -10
-193 -52 -226 -116 -42 -81 -15 -177 61 -215 67 -35 145 -28 211 18 27 19 27
19 33 -5 5 -21 11 -24 55 -23 43 0 49 3 45 20 -2 10 -4 94 -5 186 -2 221 -19
275 -103 318 -39 20 -130 24 -186 8z m181 -298 c3 -79 -10 -113 -55 -142 -73
-48 -157 -2 -147 80 6 47 77 86 170 92 29 2 31 0 32 -30z"/>
<path d="M6069 3205 c-51 -13 -89 -32 -89 -44 0 -4 5 -22 11 -39 l10 -30 42
18 c40 18 75 23 125 21 47 -2 113 -109 70 -112 -7 0 -20 -2 -28 -3 -8 -2 -37
-6 -64 -9 -70 -9 -146 -49 -176 -94 -36 -52 -36 -145 0 -191 54 -67 171 -80
251 -28 21 15 40 24 40 21 1 -3 3 -9 4 -15 1 -5 3 -14 4 -18 0 -5 22 -8 48 -8
l47 1 -2 175 c-2 96 -6 191 -9 210 -13 81 -62 134 -138 150 -57 12 -83 11
-146 -5z m182 -279 c12 -15 1 -97 -16 -122 -43 -66 -131 -79 -172 -25 -20 26
-15 77 10 106 33 39 159 68 178 41z"/>
<path d="M7018 3206 c-118 -31 -191 -140 -187 -276 2 -76 19 -130 55 -177 88
-116 285 -122 391 -13 84 86 97 250 29 362 -56 92 -172 134 -288 104z m142
-98 c52 -35 75 -90 74 -173 0 -43 -6 -81 -16 -100 -63 -120 -196 -117 -258 6
-26 49 -22 161 6 209 44 76 130 101 194 58z"/>
<path d="M7650 3202 c-17 -8 -42 -28 -55 -44 l-25 -30 0 39 0 40 -47 -2 -48
-1 0 -264 0 -265 55 0 55 0 0 165 c1 135 4 171 18 200 24 47 59 71 108 72 l40
0 -3 52 c-3 50 -4 51 -35 52 -18 1 -46 -6 -63 -14z"/>
<path d="M8542 3205 c-61 -19 -105 -52 -140 -104 -34 -52 -42 -84 -44 -161 -3
-152 88 -264 226 -277 165 -15 284 92 292 262 7 165 -89 281 -239 290 -29 1
-71 -3 -95 -10z m145 -95 c72 -44 99 -175 56 -272 -58 -128 -219 -116 -264 20
-16 48 -7 150 17 196 36 70 125 96 191 56z"/>
<path d="M9166 3197 c-18 -10 -40 -31 -49 -45 -15 -24 -17 -25 -18 -7 -4 63
-1 60 -51 60 l-46 0 1 -264 2 -265 53 -3 52 -4 1 113 c1 212 4 244 28 274 33
42 57 55 100 56 l39 0 -2 42 c-1 22 -5 47 -9 54 -11 17 -61 12 -101 -11z"/>
<path d="M1539 3195 c-4 -57 -1 -331 5 -370 19 -126 123 -191 248 -153 21 6
52 24 68 40 29 28 30 28 30 6 0 -37 13 -47 57 -46 30 0 42 5 45 17 1 9 1 129
-2 266 l-5 250 -52 0 -53 1 0 -178 c0 -159 -2 -180 -20 -211 -25 -42 -61 -62
-111 -61 -84 3 -101 49 -103 278 l-1 170 -52 1 c-31 1 -53 -4 -54 -10z"/>
<path d="M2782 3000 c3 -197 4 -207 28 -248 15 -27 42 -54 68 -69 37 -22 51
-25 103 -20 40 3 73 13 97 30 20 13 42 25 47 25 10 2 11 -1 14 -32 1 -10 14
-13 48 -12 l47 1 -2 260 c0 143 -1 263 -2 266 0 3 -24 5 -52 5 l-53 -1 -1
-175 c-1 -192 -8 -221 -60 -255 -59 -38 -129 -21 -158 39 -13 27 -16 68 -16
213 l0 178 -56 0 -55 0 3 -205z"/>
<path d="M7855 3203 c-8 -2 -11 -316 -6 -510 1 -20 6 -22 55 -21 l53 2 -1 265
-1 266 -45 1 c-26 0 -50 -1 -55 -3z"/>
</g>
</svg>
