<?xml version="1.0" standalone="no"?>
<!DOCTYPE svg PUBLIC "-//W3C//DTD SVG 1.1//EN" "http://www.w3.org/Graphics/SVG/1.1/DTD/svg11.dtd" >
<svg xmlns="http://www.w3.org/2000/svg">
<metadata>Generated by IcoMoon</metadata>
<defs>
<font id="icomoon" horiz-adv-x="1024">
<font-face units-per-em="1024" ascent="960" descent="-64" />
<missing-glyph horiz-adv-x="1024" />
<glyph unicode="&#x20;" horiz-adv-x="512" d="" />
<glyph unicode="&#xe900;" glyph-name="Search" horiz-adv-x="1058" d="M1041.055 36.437l-266.865 264.747c50.233 68.523 79.866 152.704 79.866 243.669 0 228.907-187.687 415.147-418.468 415.147-230.738 0-418.511-186.24-418.511-415.147 0-228.949 187.773-415.147 418.511-415.147 87.478 0 168.72 26.709 235.985 72.448l268.284-266.155 101.198 100.437zM139.823 544.853c0 161.792 132.68 293.419 295.766 293.419s295.766-131.627 295.766-293.419c0-161.792-132.68-293.419-295.766-293.419s-295.766 131.627-295.766 293.419v0z" />
<glyph unicode="&#xe901;" glyph-name="Cross" d="M1024 98.645l-354.773 350.251 349.909 353.365-157.781 157.739-350.379-354.901-354.56 349.995-156.416-156.416 355.029-351.573-350.123-354.688 156.416-156.416 351.445 354.901 353.493-350.037 157.739 157.781z" />
<glyph unicode="&#xe902;" glyph-name="TextChevron" horiz-adv-x="530" d="M207.731 948.171h-191.311l286.967-504.973-286.967-504.973h191.311l320.335 504.973z" />
<glyph unicode="&#xe903;" glyph-name="ChevronRight" d="M451.933 140.8l-76.466 76.8 225.28 230.4-225.28 230.4 76.466 76.8 299-307.2-299-307.2zM512 960c-282.752 0-512-229.248-512-512s229.248-512 512-512c282.752 0 512 229.248 512 512s-229.248 512-512 512v0z" />
<glyph unicode="&#xe904;" glyph-name="ChevronLeft" d="M572.067 140.8l76.466 76.8-225.28 230.4 225.28 230.4-76.466 76.8-299-307.2 299-307.2zM512 960c282.752 0 512-229.248 512-512s-229.248-512-512-512c-282.752 0-512 229.248-512 512s229.248 512 512 512v0z" />
<glyph unicode="&#xe905;" glyph-name="ChevronDown" d="M204.8 508.067l76.8 76.466 230.4-225.28 230.4 225.28 76.8-76.466-307.2-299-307.2 299zM1024 448c0 282.752-229.248 512-512 512s-512-229.248-512-512c0-282.752 229.248-512 512-512s512 229.248 512 512v0z" />
<glyph unicode="&#xe906;" glyph-name="ChevronUp" d="M819.2 387.933l-76.8-76.466-230.4 225.28-230.4-225.28-76.8 76.466 307.2 299 307.2-299zM0 448c0-282.752 229.248-512 512-512s512 229.248 512 512c0 282.752-229.248 512-512 512s-512-229.248-512-512v0z" />
<glyph unicode="&#xe907;" glyph-name="Email" d="M0 960h1024v-1024h-1024v1024zM512 360.644l-307.2 258.023v-409.6h614.4v409.6l-307.2-258.023zM512.013 448l307.187 238.933h-614.4l307.213-238.933z" />
<glyph unicode="&#xe908;" glyph-name="LinkedIn" d="M853.333 149.333h-128v239.104c0 143.701-170.667 132.821-170.667 0 0-70.101 0-239.104 0-239.104h-128v469.333h128v-75.307c59.648 110.336 298.667 118.485 298.667-105.643 0-121.899 0-288.384 0-288.384zM277.333 672.768c-41.216 0-74.667 33.707-74.667 75.264s33.451 75.264 74.667 75.264c41.259 0 74.667-33.707 74.667-75.264s-33.408-75.264-74.667-75.264zM213.333 149.333v469.333h128v-469.333h-128zM0-64h1024v1024h-1024v-1024z" />
<glyph unicode="&#xe909;" glyph-name="Facebook" d="M682.667 661.333c0 0-60.885 0-82.048 0-26.283 0-45.952-10.752-45.952-37.931 0-22.613 0-47.403 0-47.403h128l-10.197-128h-117.803v-341.333h-128v341.333h-85.333v128h85.333c0 0 0 6.955 0 82.048 0 86.272 45.397 131.285 147.669 131.285 16.725 0 108.331 0 108.331 0v-128zM0-64h1024v1024h-1024v-1024z" />
<glyph unicode="&#xe90a;" glyph-name="ChevronL" horiz-adv-x="658" d="M658.286 832l-134.159 128-524.127-512 524.127-512 134.159 128-394.971 384 394.971 384z" />
<glyph unicode="&#xe90b;" glyph-name="Twitter" d="M804.736 565.888c8.875-196.949-137.984-416.64-398.037-416.64-79.104 0-152.704 23.211-214.699 62.933 74.325-8.704 148.48 11.904 207.36 57.984-61.312 1.152-113.024 41.643-130.859 97.28 21.973-4.139 43.563-2.944 63.275 2.432-67.371 13.483-113.877 74.197-112.341 139.093 18.859-10.496 40.491-16.811 63.403-17.536-62.336 41.685-80 124.032-43.307 187.008 69.077-84.736 172.288-140.501 288.64-146.347-20.395 87.595 46.080 171.947 136.448 171.947 40.277 0 76.715-16.981 102.229-44.203 31.957 6.272 61.909 17.92 88.96 33.963-10.453-32.683-32.64-60.117-61.611-77.483 28.331 3.413 55.339 10.923 80.469 22.059-18.773-28.075-42.539-52.736-69.931-72.491zM0-64h1024v1024h-1024v-1024z" />
<glyph unicode="&#xe90c;" glyph-name="ChevronR" horiz-adv-x="658" d="M0 832l134.159 128 524.127-512-524.127-512-134.159 128 394.971 384-394.971 384z" />
<glyph unicode="&#xe90d;" glyph-name="Phone.icon" horiz-adv-x="671" d="M670.879 11.476l-147.639 284.922c-0.293-0.168-82.73-40.715-86.546-42.392-93.926-45.537-285.090 327.901-193.261 377.128l87.301 43.021-146.423 285.844c-0.084-0.042-86.881-42.854-88.307-43.566-301.988-157.451 177.494-1089.454 486.401-948.272 5.074 2.306 88.139 43.147 88.475 43.315z" />
<glyph unicode="&#xe90e;" glyph-name="Email.icon" horiz-adv-x="1380" d="M690.087 265.515l-690.087 560.92v-890.435h1380.174v890.435l-690.087-560.92zM690.116 425.739l-690.116 534.261h1380.174l-690.058-534.261z" />
<glyph unicode="&#xe90f;" glyph-name="File" horiz-adv-x="847" d="M508.469 618.667h338.979v-682.667h-847.448v1024h508.469v-341.333zM847.448 712.828h-247.172v247.172l247.172-247.172z" />
<glyph unicode="&#xe910;" glyph-name="ChevronDown2" horiz-adv-x="1621" d="M1418.667 960l202.667-208.691-810.667-815.309-810.667 815.309 202.667 208.691 608-614.4 608 614.4z" />
<glyph unicode="&#xe911;" glyph-name="Pin" horiz-adv-x="530" d="M378.306 748.138c0-159.786 151.349-139.448 151.349-423.724h-529.655c0 284.277 151.349 263.938 151.349 423.724 0 123.007-104.21 130.888-107.211 211.862h441.379c-3.001-80.974-107.211-88.897-107.211-211.862zM211.862 218.483h105.931v-201.773l-105.931-80.709v282.483z" />
<glyph unicode="&#xe912;" glyph-name="Menu" d="M256 576h512v85.333h-512v-85.333zM256 405.333h512v85.333h-512v-85.333zM256 234.667h512v85.333h-512v-85.333zM512 960c-282.752 0-512-229.248-512-512s229.248-512 512-512c282.752 0 512 229.248 512 512s-229.248 512-512 512zM512 874.667c235.264 0 426.667-191.403 426.667-426.667 0-235.307-191.403-426.667-426.667-426.667s-426.667 191.36-426.667 426.667c0 235.264 191.403 426.667 426.667 426.667v0z" />
<glyph unicode="&#xe913;" glyph-name="SearchSquare" horiz-adv-x="989" d="M0 960h988.69v-1024h-988.69v1024zM670.897 288.427l-92.024 91.292c17.322 23.629 27.541 52.657 27.541 84.024 0 78.933-64.721 143.154-144.302 143.154-79.567 0-144.317-64.221-144.317-143.154 0-78.948 64.751-143.154 144.317-143.154 30.166 0 58.181 9.21 81.376 24.982l92.514-91.777 34.897 34.634zM353.103 465.655c0 58.411 47.52 105.931 105.931 105.931s105.931-47.52 105.931-105.931c0-58.411-47.52-105.931-105.931-105.931s-105.931 47.52-105.931 105.931z" />
<glyph unicode="&#xe914;" glyph-name="DoubleChevronRight" horiz-adv-x="1134" d="M0 832l134.159 128 524.127-512-524.127-512-134.159 128 394.971 384-394.971 384zM475.429 832l134.159 128 524.127-512-524.127-512-134.159 128 394.971 384-394.971 384z" />
<glyph unicode="&#xe915;" glyph-name="Tick" horiz-adv-x="1268" d="M441.643-61.291l-441.643 441.096 136.909 146.555 302.28-299.953 689.061 733.593 139.559-143.9z" />
<glyph unicode="&#xe916;" glyph-name="Info" d="M648.202 622.308c-25.138-22.789-62.373-22.285-83.211 1.107s-17.342 60.769 7.749 83.508c25.138 22.789 62.373 22.286 83.212-1.107 20.791-23.392 17.342-60.769-7.75-83.508zM444.155 295.609c23.788 75.471 68.832 165.875 76.804 188.782 11.514 33.2-8.899 47.923-73.387-8.817-4.133 8.353-9.954 17.845-14.34 26.999 73.556 80.027 225.055 98.082 173.515-25.902-32.181-77.453-55.209-129.679-68.369-169.967-19.19-58.807 29.271-34.972 76.677 8.901 6.495-10.589 8.604-13.964 15.099-26.113-105.442-100.318-222.398-109.177-185.999 6.117zM512 960c-282.752 0-512-229.248-512-512s229.248-512 512-512c282.752 0 512 229.248 512 512s-229.248 512-512 512zM512 881.231c238.883 0 433.231-194.347 433.231-433.231 0-238.927-194.347-433.231-433.231-433.231s-433.231 194.304-433.231 433.231c0 238.883 194.347 433.231 433.231 433.231v0z" />
</font>
</defs>
</svg>
